<mxfile host="app.diagrams.net" modified="2020-07-30T18:00:49.157Z" agent="5.0 (X11)" etag="HVJrGN8czJCcpUvFxhgl" compressed="false" version="13.5.7" type="device">
  <diagram id="Lq_13Nxvut9fiGw5ObzQ" name="Page-1">
    <mxGraphModel dx="1044" dy="636" grid="1" gridSize="10" guides="1" tooltips="1" connect="1" arrows="1" fold="1" page="1" pageScale="1" pageWidth="850" pageHeight="1100" math="0" shadow="0">
      <root>
        <mxCell id="0" />
        <mxCell id="1" parent="0" />
        <mxCell id="Dh8elPb9v9UpVWmp1GM5-1" value="r&lt;sub&gt;1&lt;/sub&gt;" style="rounded=0;whiteSpace=wrap;html=1;" parent="1" vertex="1">
          <mxGeometry x="240" y="200" width="60" height="60" as="geometry" />
        </mxCell>
        <mxCell id="Dh8elPb9v9UpVWmp1GM5-2" value="r&lt;sub&gt;4&lt;/sub&gt;" style="rounded=0;whiteSpace=wrap;html=1;" parent="1" vertex="1">
          <mxGeometry x="540" y="200" width="60" height="60" as="geometry" />
        </mxCell>
        <mxCell id="Dh8elPb9v9UpVWmp1GM5-3" value="r&lt;sub&gt;3&lt;/sub&gt;" style="rounded=0;whiteSpace=wrap;html=1;" parent="1" vertex="1">
          <mxGeometry x="440" y="200" width="60" height="60" as="geometry" />
        </mxCell>
        <mxCell id="Dh8elPb9v9UpVWmp1GM5-4" value="r&lt;sub&gt;2&lt;/sub&gt;" style="rounded=0;whiteSpace=wrap;html=1;" parent="1" vertex="1">
          <mxGeometry x="340" y="200" width="60" height="60" as="geometry" />
        </mxCell>
        <mxCell id="Dh8elPb9v9UpVWmp1GM5-9" value="&lt;div&gt;d&lt;sub&gt;12&lt;/sub&gt;&lt;/div&gt;" style="rounded=0;whiteSpace=wrap;html=1;labelPosition=center;verticalLabelPosition=middle;align=center;verticalAlign=middle;" parent="1" vertex="1">
          <mxGeometry x="300" y="220" width="40" height="20" as="geometry" />
        </mxCell>
        <mxCell id="Dh8elPb9v9UpVWmp1GM5-10" value="d&lt;sub&gt;23&lt;/sub&gt;" style="rounded=0;whiteSpace=wrap;html=1;labelPosition=center;verticalLabelPosition=middle;align=center;verticalAlign=middle;" parent="1" vertex="1">
          <mxGeometry x="400" y="220" width="40" height="20" as="geometry" />
        </mxCell>
        <mxCell id="Dh8elPb9v9UpVWmp1GM5-11" value="d&lt;sub&gt;34&lt;/sub&gt;" style="rounded=0;whiteSpace=wrap;html=1;labelPosition=center;verticalLabelPosition=middle;align=center;verticalAlign=middle;" parent="1" vertex="1">
          <mxGeometry x="500" y="220" width="40" height="20" as="geometry" />
        </mxCell>
        <mxCell id="Dh8elPb9v9UpVWmp1GM5-12" value="" style="pointerEvents=1;shadow=0;dashed=0;html=1;strokeColor=none;labelPosition=center;verticalLabelPosition=bottom;verticalAlign=top;outlineConnect=0;align=center;shape=mxgraph.office.security.lock_unprotected;fillColor=#CCCBCB;" parent="1" vertex="1">
          <mxGeometry x="515" y="200" width="10" height="15" as="geometry" />
        </mxCell>
      </root>
    </mxGraphModel>
  </diagram>
</mxfile>
